<svg viewBox="0 0 63 58" fill="none" xmlns="http://www.w3.org/2000/svg">
  <path d="M28.5002 2.19395C29.3162 -0.731305 33.4636 -0.731305 34.2796 2.19395L37.5264 13.8336C38.0091 15.5641 39.8941 16.4852 41.5559 15.8026L53.3461 10.9599C56.2457 9.76892 58.799 13.2626 56.7838 15.6636L49.7389 24.057C48.468 25.5711 48.9834 27.8791 50.7778 28.7087L61.0352 33.4511C63.9229 34.7862 63.0197 39.1069 59.839 39.1735L47.7525 39.4265C45.8558 39.4662 44.4717 41.2344 44.8886 43.0851L47.3703 54.1025C48.0447 57.0965 44.3204 59.0517 42.239 56.7963L33.5946 47.4292C32.4066 46.142 30.3732 46.142 29.1852 47.4292L20.5408 56.7963C18.4594 59.0517 14.735 57.0965 15.4095 54.1025L17.8912 43.0851C18.3081 41.2344 16.924 39.4662 15.0273 39.4265L2.94077 39.1735C-0.239936 39.1069 -1.1431 34.7862 1.74461 33.4511L12.002 28.7087C13.7964 27.8791 14.3118 25.5711 13.0409 24.057L5.99602 15.6636C3.98075 13.2626 6.53411 9.76892 9.4337 10.9599L21.2239 15.8026C22.8857 16.4852 24.7707 15.5641 25.2534 13.8336L28.5002 2.19395Z" fill="white"/>
</svg>
