<svg xmlns="http://www.w3.org/2000/svg" viewBox="0 0 128 128">
  <defs>
    <linearGradient id="g" x1="0" y1="0" x2="1" y2="1">
      <stop offset="0" stop-color="#4f46e5"/>
      <stop offset="1" stop-color="#7c3aed"/>
    </linearGradient>
    <filter id="s" x="-20%" y="-20%" width="140%" height="140%">
      <feDropShadow dx="0" dy="2" stdDeviation="3" flood-color="#0f172a" flood-opacity="0.35"/>
    </filter>
  </defs>
  <rect x="10" y="10" width="108" height="108" rx="22" fill="url(#g)" filter="url(#s)"/>
  <path d="M64 30c-7 0-12 5-12 12 0 6 4 11 10 12-4 7-14 10-14 20 0 10 7 18 16 18h0c9 0 16-8 16-18 0-10-10-13-14-20 6-1 10-6 10-12 0-7-5-12-12-12z" fill="#ffffff" opacity="0.95"/>
  <path d="M40 46l-10-4 4 10 10 4z" fill="#ffffff" opacity="0.75"/>
  <path d="M88 46l10-4-4 10-10 4z" fill="#ffffff" opacity="0.75"/>
</svg>
