<svg xmlns="http://www.w3.org/2000/svg" viewBox="0 0 128 128">
  <defs>
    <linearGradient id="g" x1="0" y1="0" x2="1" y2="1">
      <stop offset="0" stop-color="#ffffff" stop-opacity="0.95"/>
      <stop offset="1" stop-color="#ffffff" stop-opacity="0.80"/>
    </linearGradient>
  </defs>
  <path d="M64 18c-7 0-12 5-12 12 0 6 4 11 10 12-4 7-14 10-14 20 0 10 7 18 16 18h0c9 0 16-8 16-18 0-10-10-13-14-20 6-1 10-6 10-12 0-7-5-12-12-12z" fill="url(#g)"/>
  <path d="M36 38l-10-4 4 10 10 4z" fill="#ffffff" opacity="0.55"/>
  <path d="M92 38l10-4-4 10-10 4z" fill="#ffffff" opacity="0.55"/>
</svg>
